<svg xmlns="http://www.w3.org/2000/svg" viewBox="0 0 64 64">
  <defs>
    <linearGradient id="mark" x1="8" y1="8" x2="56" y2="56" gradientUnits="userSpaceOnUse">
      <stop offset="0" stop-color="#fb7b3d"/>
      <stop offset="1" stop-color="#e64f86"/>
    </linearGradient>
  </defs>
  <rect width="64" height="64" rx="18" fill="url(#mark)"/>
  <path
    d="M45 31.5c0 7.2-5.9 13-13.1 13-2.1 0-4.2-.5-6-1.5l-6.4 3.5 1.8-7.1A12.9 12.9 0 0 1 19 31.5c0-7.2 5.9-13 13-13s13 5.8 13 13Z"
    fill="none"
    stroke="#171923"
    stroke-width="3.2"
    stroke-linecap="round"
    stroke-linejoin="round"
  />
  <path
    d="M28.2 28.5a4.1 4.1 0 0 1 7.9 1.4c0 3-4.1 3.4-4.1 6.2"
    fill="none"
    stroke="#171923"
    stroke-width="3.2"
    stroke-linecap="round"
    stroke-linejoin="round"
  />
  <circle cx="32" cy="40.8" r="1.7" fill="#171923"/>
</svg>
